<svg width="77" height="83" viewBox="0 0 77 83" fill="none" xmlns="http://www.w3.org/2000/svg">
<path d="M38.18 41.5C49.1816 41.5 58.1 32.5815 58.1 21.58C58.1 10.5785 49.1816 1.66 38.18 1.66C27.1785 1.66 18.26 10.5785 18.26 21.58C18.26 32.5815 27.1785 41.5 38.18 41.5Z" fill="#25AAE1"/>
<path d="M38.18 43.16C26.2808 43.16 16.6 33.4792 16.6 21.58C16.6 9.68079 26.2808 0 38.18 0C50.0792 0 59.76 9.68079 59.76 21.58C59.76 33.4792 50.0795 43.16 38.18 43.16ZM38.18 3.32C28.1114 3.32 19.92 11.5114 19.92 21.58C19.92 31.6486 28.1114 39.84 38.18 39.84C48.2486 39.84 56.44 31.6486 56.44 21.58C56.44 11.5114 48.2486 3.32 38.18 3.32Z" fill="black"/>
<path d="M41.5 31.54H34.86C32.114 31.54 29.88 29.306 29.88 26.56H33.2C33.2 27.4753 33.9447 28.22 34.86 28.22H41.5C42.4153 28.22 43.16 27.4753 43.16 26.56V24.9C43.16 23.9847 42.4153 23.24 41.5 23.24H34.86C32.114 23.24 29.88 21.006 29.88 18.26V16.6C29.88 13.854 32.114 11.62 34.86 11.62H41.5C44.246 11.62 46.48 13.854 46.48 16.6H43.16C43.16 15.6847 42.4153 14.94 41.5 14.94H34.86C33.9447 14.94 33.2 15.6847 33.2 16.6V18.26C33.2 19.1753 33.9447 19.92 34.86 19.92H41.5C44.246 19.92 46.48 22.154 46.48 24.9V26.56C46.48 29.306 44.246 31.54 41.5 31.54Z" fill="black"/>
<path d="M39.84 8.29999H36.52V13.28H39.84V8.29999Z" fill="black"/>
<path d="M39.84 29.88H36.52V34.86H39.84V29.88Z" fill="black"/>
<path d="M64.74 63.08C58.3327 63.08 53.12 57.8673 53.12 51.46C53.12 45.0527 58.3327 39.84 64.74 39.84C71.1473 39.84 76.36 45.0527 76.36 51.46C76.36 57.8673 71.1473 63.08 64.74 63.08ZM64.74 43.16C60.1634 43.16 56.44 46.8834 56.44 51.46C56.44 56.0366 60.1634 59.76 64.74 59.76C69.3166 59.76 73.04 56.0366 73.04 51.46C73.04 46.8834 69.3166 43.16 64.74 43.16Z" fill="black"/>
<path d="M11.62 63.08C5.21273 63.08 0 57.8673 0 51.46C0 45.0527 5.21273 39.84 11.62 39.84C18.0273 39.84 23.24 45.0527 23.24 51.46C23.24 57.8673 18.0273 63.08 11.62 63.08ZM11.62 43.16C7.04338 43.16 3.32 46.8834 3.32 51.46C3.32 56.0366 7.04338 59.76 11.62 59.76C16.1966 59.76 19.92 56.0366 19.92 51.46C19.92 46.8834 16.1966 43.16 11.62 43.16Z" fill="black"/>
<path d="M63.9115 50.0192L40.6728 63.2981L42.3197 66.1802L65.5584 52.9014L63.9115 50.0192Z" fill="black"/>
<path d="M12.4403 50.0184L10.7935 52.9005L34.0324 66.1795L35.6793 63.2974L12.4403 50.0184Z" fill="black"/>
<path d="M43.1603 83H33.2V46.48H43.1603V83ZM36.52 79.68H39.8403V49.8H36.52V79.68Z" fill="black"/>
<path d="M54.7803 79.68H21.58V83H54.7803V79.68Z" fill="black"/>
</svg>
