<svg width="81" height="73" viewBox="0 0 81 73" fill="none" xmlns="http://www.w3.org/2000/svg">
<path d="M62.7461 11.0904H56.4087V16.6356H46.9026V11.0904H18.3844L2.89862 32.7703C2.74874 32.9801 2.89862 33.2713 3.15655 33.2713H77.974C78.2316 33.2713 78.3814 32.9801 78.2319 32.7703L62.7461 11.0904Z" fill="#41B649"/>
<path d="M77.974 34.8557H3.15656C2.44107 34.8557 1.79339 34.4606 1.46606 33.8243C1.13873 33.1883 1.19387 32.4313 1.6096 31.8495L17.5691 9.5061H48.487V15.0513H54.8244V9.5061H63.5615L79.5209 31.8495C79.9366 32.4316 79.9915 33.1883 79.6645 33.8243C79.3371 34.4606 78.6891 34.8557 77.974 34.8557ZM5.61959 31.687H75.5109L61.9308 12.6748H57.9931V18.22H45.3183V12.6748H19.1997L5.61959 31.687Z" fill="black"/>
<path d="M80.1739 72.8799H0.956482V38.0242H80.1739V72.8799ZM4.12518 69.7112H77.0052V41.1929H4.12518V69.7112Z" fill="black"/>
<path d="M35.8122 39.6087H32.6435V71.2957H35.8122V39.6087Z" fill="black"/>
<path d="M19.672 10.1705L17.0936 12.0121L32.936 34.1921L35.5144 32.3504L19.672 10.1705Z" fill="black"/>
<path d="M64.3304 72.88H48.4869V50.6991H64.3304V72.88ZM51.6556 69.7113H61.1617V53.8678H51.6556V69.7113Z" fill="black"/>
<path d="M57.993 18.22H45.3182V0H57.993V18.22ZM48.4869 15.0513H54.8243V3.1687H48.4869V15.0513Z" fill="black"/>
<path d="M23.1374 50.6991H13.6313V53.8678H23.1374V50.6991Z" fill="black"/>
</svg>
