<svg width="25" height="14" viewBox="0 0 25 14" fill="none" xmlns="http://www.w3.org/2000/svg">
<path fill-rule="evenodd" clip-rule="evenodd" d="M12.5003 0.208313C12.8871 0.208396 13.2579 0.362095 13.5314 0.635605L23.7397 10.8439C24.0053 11.119 24.1523 11.4874 24.149 11.8697C24.1457 12.2521 23.9923 12.6179 23.7219 12.8883C23.4515 13.1586 23.0858 13.312 22.7034 13.3153C22.321 13.3187 21.9526 13.1717 21.6776 12.906L12.5003 3.72873L3.32302 12.906C3.04797 13.1717 2.67959 13.3187 2.29722 13.3153C1.91485 13.312 1.54909 13.1586 1.2787 12.8883C1.00831 12.6179 0.85494 12.2521 0.851618 11.8697C0.848295 11.4874 0.995287 11.119 1.26093 10.8439L11.4693 0.635605C11.7427 0.362095 12.1136 0.208396 12.5003 0.208313Z" fill="black"/>
</svg>
