<svg width="28" height="28" viewBox="0 0 28 28" fill="none" xmlns="http://www.w3.org/2000/svg">
<path fill-rule="evenodd" clip-rule="evenodd" d="M13.9998 0.666992C14.4419 0.666992 14.8658 0.842596 15.1783 1.15517C15.4909 1.46775 15.6665 1.89169 15.6665 2.33374V12.3342H25.6665C26.1085 12.3342 26.5325 12.5098 26.845 12.8224C27.1576 13.135 27.3332 13.5589 27.3332 14.001C27.3332 14.443 27.1576 14.867 26.845 15.1795C26.5325 15.4921 26.1085 15.6677 25.6665 15.6677H15.6665V25.6682C15.6665 26.1102 15.4909 26.5342 15.1783 26.8468C14.8658 27.1593 14.4419 27.3349 13.9998 27.3349C13.5578 27.3349 13.1339 27.1593 12.8213 26.8468C12.5088 26.5342 12.3332 26.1102 12.3332 25.6682V15.6677H2.33317C1.89114 15.6677 1.46722 15.4921 1.15466 15.1795C0.842099 14.867 0.666504 14.443 0.666504 14.001C0.666504 13.5589 0.842099 13.135 1.15466 12.8224C1.46722 12.5098 1.89114 12.3342 2.33317 12.3342H12.3332V2.33374C12.3332 1.89169 12.5088 1.46775 12.8213 1.15517C13.1339 0.842596 13.5578 0.666992 13.9998 0.666992Z" fill="black"/>
</svg>
