<svg width="37" height="37" viewBox="0 0 37 37" fill="none" xmlns="http://www.w3.org/2000/svg">
<path d="M15.4375 21.195C15.9452 21.195 16.432 21.3967 16.791 21.7556C17.1499 22.1146 17.3516 22.6014 17.3516 23.1091C17.3516 23.6167 17.1499 24.1036 16.791 24.4625C16.432 24.8215 15.9452 25.0232 15.4375 25.0232C14.9299 25.0232 14.443 24.8215 14.0841 24.4625C13.7251 24.1036 13.5235 23.6167 13.5235 23.1091C13.5235 22.6014 13.7251 22.1146 14.0841 21.7556C14.443 21.3967 14.9299 21.195 15.4375 21.195ZM15.4375 6.25922C18.595 6.25922 21.1123 8.85009 21.1123 12.2311C21.1123 14.0257 20.457 15.0118 18.8859 16.2675L18.0376 16.9259C17.2842 17.52 17.03 17.8447 16.978 18.2979L16.9443 18.7757C16.8761 19.1522 16.6694 19.4895 16.3649 19.7213C16.0605 19.953 15.6802 20.0624 15.2992 20.0278C14.9181 19.9933 14.5637 19.8173 14.3059 19.5345C14.0481 19.2517 13.9056 18.8827 13.9063 18.5C13.9063 16.7544 14.5494 15.7928 16.099 14.5555L16.9504 13.8971C17.8324 13.1927 18.0529 12.8497 18.0529 12.2311C18.0529 10.5222 16.883 9.32172 15.4375 9.32172C13.9246 9.32172 12.8068 10.4426 12.8252 12.2158C12.8293 12.6219 12.6718 13.013 12.3875 13.303C12.2468 13.4466 12.0791 13.5611 11.8941 13.6399C11.7091 13.7187 11.5104 13.7603 11.3093 13.7623C10.9032 13.7664 10.5121 13.609 10.222 13.3247C9.93199 13.0404 9.76676 12.6525 9.7627 12.2464C9.72901 8.76128 12.228 6.25922 15.4375 6.25922ZM0.125014 15.4375C0.126263 12.124 1.2023 8.9003 3.19159 6.25036C5.18088 3.60043 7.97607 1.66727 11.1575 0.741111C14.339 -0.185049 17.735 -0.0542334 20.8358 1.11392C23.9366 2.28207 26.5748 4.42452 28.3543 7.21963C30.1339 10.0147 30.9587 13.3117 30.7051 16.6155C30.4514 19.9193 29.133 23.0516 26.9476 25.5423C24.7622 28.033 21.8279 29.7477 18.5851 30.4288C15.3424 31.1099 11.9662 30.7208 8.96339 29.3198L1.95639 30.7194C1.70938 30.7686 1.45405 30.7561 1.21304 30.683C0.97202 30.6099 0.752752 30.4785 0.574662 30.3004C0.396573 30.1223 0.265161 29.903 0.19207 29.662C0.118979 29.421 0.106465 29.1657 0.155639 28.9187L1.5552 21.9086C0.610204 19.8824 0.121963 17.6733 0.125014 15.4375ZM15.4375 3.18753C13.3407 3.187 11.2788 3.7247 9.4493 4.74917C7.61978 5.77364 6.08385 7.25057 4.98855 9.03859C3.89325 10.8266 3.27524 12.8658 3.19368 14.9611C3.11213 17.0563 3.56976 19.1374 4.52276 21.0052C4.68004 21.3129 4.72861 21.6647 4.66058 22.0035L3.60708 27.268L8.87151 26.2145C9.21032 26.1464 9.56218 26.195 9.86989 26.3523C11.5197 27.1929 13.3387 27.6487 15.19 27.6851C17.0413 27.7216 18.8768 27.338 20.5585 26.563C22.2402 25.788 23.7243 24.6418 24.8993 23.2107C26.0743 21.7796 26.9095 20.1007 27.3422 18.3003C27.775 16.4999 27.7939 14.6248 27.3976 12.816C27.0014 11.0072 26.2002 9.31183 25.0544 7.85725C23.9086 6.40266 22.4479 5.22676 20.7823 4.41795C19.1166 3.60913 17.2892 3.18845 15.4375 3.18753ZM11.9463 33.4818C14.6674 35.6827 18.0627 36.8808 21.5625 36.875C23.8716 36.875 26.0644 36.3636 28.0336 35.4448L35.0436 36.8444C35.2906 36.8936 35.546 36.8811 35.787 36.808C36.028 36.7349 36.2473 36.6035 36.4254 36.4254C36.6035 36.2473 36.7349 36.028 36.808 35.787C36.8811 35.546 36.8936 35.2907 36.8444 35.0437L35.4448 28.0367C36.3636 26.0675 36.875 23.8717 36.875 21.5625C36.8801 18.0638 35.682 14.6697 33.4818 11.9493C33.9181 14.2166 33.9254 16.5455 33.5032 18.8155C34.1453 21.6217 33.7823 24.5642 32.4773 27.1302C32.32 27.4379 32.2714 27.7897 32.3395 28.1285L33.393 33.393L28.1255 32.3395C27.7876 32.2721 27.437 32.3207 27.1301 32.4773C24.5637 33.7843 21.6195 34.1474 18.8124 33.5032C16.5425 33.9253 14.2135 33.918 11.9463 33.4818Z" fill="#41B649"/>
</svg>
