<svg width="85" height="84" viewBox="0 0 85 84" fill="none" xmlns="http://www.w3.org/2000/svg">
<path d="M83.2617 52.6758H1.69922V62.8711H83.2617V52.6758Z" fill="#41B649"/>
<path d="M84.9609 64.5703H0V50.9766H84.9609V64.5703ZM3.39844 61.1719H81.5625V54.375H3.39844V61.1719Z" fill="black"/>
<path d="M10.1953 62.8711H6.79688V83.2617H10.1953V62.8711Z" fill="black"/>
<path d="M78.1641 62.8711H74.7656V83.2617H78.1641V62.8711Z" fill="black"/>
<path d="M74.7656 54.375H57.7734V37.3828H74.7656V54.375ZM61.1719 50.9766H71.3672V40.7812H61.1719V50.9766Z" fill="black"/>
<path d="M66.2695 23.7891C59.7109 23.7891 54.375 18.4532 54.375 11.8945C54.375 5.33589 59.7109 0 66.2695 0C72.8282 0 78.1641 5.33589 78.1641 11.8945C78.1641 18.4532 72.8282 23.7891 66.2695 23.7891ZM66.2695 3.39844C61.5848 3.39844 57.7734 7.20978 57.7734 11.8945C57.7734 16.5793 61.5848 20.3906 66.2695 20.3906C70.9543 20.3906 74.7656 16.5793 74.7656 11.8945C74.7656 7.20978 70.9543 3.39844 66.2695 3.39844Z" fill="black"/>
<path d="M67.9688 13.5938H61.1719V10.1953H64.5703V6.79688H67.9688V13.5938Z" fill="black"/>
<path d="M64.5703 32.2852H61.1719V35.6836H64.5703V32.2852Z" fill="black"/>
<path d="M71.3672 28.8867H67.9688V35.6836H71.3672V28.8867Z" fill="black"/>
<path d="M35.6836 54.375H22.0898V33.9844H35.6836V54.375ZM25.4883 50.9766H32.2852V37.3828H25.4883V50.9766Z" fill="black"/>
<path d="M45.8789 44.1797H32.2852V37.3828H25.4883V44.1797H11.8945C9.08368 44.1797 6.79688 41.8929 6.79688 39.082V18.6914C6.79688 15.8806 9.08368 13.5938 11.8945 13.5938H45.8789C48.6898 13.5938 50.9766 15.8806 50.9766 18.6914V39.082C50.9766 41.8929 48.6898 44.1797 45.8789 44.1797ZM35.6836 40.7812H45.8789C46.8159 40.7812 47.5781 40.019 47.5781 39.082V18.6914C47.5781 17.7545 46.8159 16.9922 45.8789 16.9922H11.8945C10.9576 16.9922 10.1953 17.7545 10.1953 18.6914V39.082C10.1953 40.019 10.9576 40.7812 11.8945 40.7812H22.0898V33.9844H35.6836V40.7812Z" fill="black"/>
<path d="M34.0693 27.1875H23.874V30.5859H34.0693V27.1875Z" fill="black"/>
</svg>
