<svg width="32" height="32" viewBox="0 0 32 32" fill="none" xmlns="http://www.w3.org/2000/svg">
<path d="M22.667 19.9999H25.3336V22.6666H22.667V19.9999ZM22.667 14.6666H25.3336V17.3333H22.667V14.6666ZM22.667 9.33325H25.3336V11.9999H22.667V9.33325ZM18.3203 9.33325L20.0003 10.4533V9.33325H18.3203Z" fill="#41B649"/>
<path d="M13.333 4V6.01333L15.9997 7.78667V6.66667H27.9997V25.3333H22.6663V28H30.6663V4H13.333Z" fill="#41B649"/>
<path d="M10.893 7.6001L19.9997 13.6668V28.0001H1.33301V13.9734L10.893 7.6001ZM13.333 25.3334H17.333V14.8801L10.893 10.7868L3.99967 15.1734V25.3334H7.99967V17.3334H13.333V25.3334Z" fill="#41B649"/>
</svg>
