<svg width="20" height="23" viewBox="0 0 20 23" fill="none" xmlns="http://www.w3.org/2000/svg">
<path fill-rule="evenodd" clip-rule="evenodd" d="M7 0C6.73481 5.66346e-05 6.48049 0.105445 6.293 0.292985L0.293 6.29269C0.105451 6.48017 5.66374e-05 6.73447 0 6.99965V18.9991C0 19.7947 0.316071 20.5577 0.87868 21.1203C1.44129 21.6828 2.20435 21.9989 3 21.9989H4C4.26522 21.9989 4.51957 21.8936 4.70711 21.706C4.89464 21.5185 5 21.2642 5 20.999C5 20.7337 4.89464 20.4794 4.70711 20.2919C4.51957 20.1044 4.26522 19.999 4 19.999H3C2.73478 19.999 2.48043 19.8937 2.29289 19.7061C2.10536 19.5186 2 19.2643 2 18.9991V7.9996H7C7.26522 7.9996 7.51957 7.89425 7.70711 7.70672C7.89464 7.51919 8 7.26485 8 6.99965V1.9999H15C15.2652 1.9999 15.5196 2.10525 15.7071 2.29278C15.8946 2.48031 16 2.73465 16 2.99985V9.9995C16 10.2647 16.1054 10.519 16.2929 10.7066C16.4804 10.8941 16.7348 10.9995 17 10.9995C17.2652 10.9995 17.5196 10.8941 17.7071 10.7066C17.8946 10.519 18 10.2647 18 9.9995V2.99985C18 2.20424 17.6839 1.44122 17.1213 0.878636C16.5587 0.316055 15.7956 0 15 0H7ZM6 5.9997H3.414L6 3.41383V5.9997ZM7.308 22.5619C7.466 22.7569 7.695 22.9159 7.985 22.9749C8.255 23.0308 8.492 22.9799 8.656 22.9199C8.958 22.8099 9.196 22.6029 9.35 22.4499C9.594 22.2099 9.85 21.8839 10.103 21.5159C11.213 21.1329 12.771 20.781 14.287 20.559C15.13 20.436 15.917 20.359 16.579 20.333C16.841 20.643 17.08 20.908 17.279 21.1089C17.403 21.2349 17.541 21.3659 17.677 21.4659C17.737 21.5109 17.852 21.5909 17.999 21.6479C18.076 21.6779 18.579 21.8699 19.042 21.4959C19.316 21.2759 19.568 21.0289 19.744 20.752C19.921 20.472 20.088 20.046 19.949 19.562C19.813 19.087 19.459 18.8221 19.198 18.6841C18.9333 18.5529 18.65 18.4632 18.358 18.4181C18.0818 18.372 17.8029 18.3436 17.523 18.3331C16.8186 17.4495 16.1416 16.5445 15.493 15.6192C14.9269 14.8202 14.3925 13.9993 13.891 13.1583C13.936 12.9654 13.973 12.7814 14.003 12.6054C14.053 12.3054 14.083 12.0034 14.076 11.7204C14.0759 11.4089 14.009 11.101 13.88 10.8175C13.7927 10.6311 13.6659 10.466 13.5084 10.3336C13.3509 10.2012 13.1665 10.1046 12.968 10.0505C12.566 9.9425 12.183 10.0235 11.889 10.1325C11.436 10.2995 11.187 10.6725 11.101 11.0354C11.0451 11.3054 11.0495 11.5844 11.114 11.8524C11.208 12.2904 11.427 12.7954 11.68 13.2883C11.702 13.3323 11.725 13.3773 11.749 13.4213C11.51 14.2063 11.158 15.1312 10.739 16.0892C10.126 17.4921 9.405 18.8831 8.785 19.877C8.362 20.054 7.971 20.257 7.675 20.491C7.473 20.65 7.202 20.908 7.072 21.2859C6.913 21.7499 7.026 22.2139 7.308 22.5619ZM8.876 22.0939L8.882 22.0869C8.8802 22.0894 8.87819 22.0917 8.876 22.0939ZM13.997 18.5801C13.183 18.7001 12.345 18.8561 11.55 19.038C11.904 18.3511 12.253 17.6191 12.572 16.8902C12.752 16.4772 12.927 16.0572 13.089 15.6422C13.336 16.0162 13.594 16.3952 13.856 16.7672C14.2528 17.3329 14.6596 17.8916 15.076 18.4431C14.719 18.4811 14.356 18.5281 13.997 18.5801ZM13.061 11.3834V11.3814V11.3834Z" fill="black"/>
</svg>
