<svg width="27" height="328" viewBox="0 0 27 328" fill="none" xmlns="http://www.w3.org/2000/svg">
<path d="M16.5496 312.801H26.7087V318.315H16.5496L0.291304 328V323.148C0.291304 322.67 0.40661 322.29 0.637226 322.009C0.855701 321.715 1.14093 321.482 1.49292 321.31L9.81322 316.936C10.3715 316.642 10.8935 316.379 11.379 316.146C11.8645 315.901 12.35 315.686 12.8355 315.503C12.35 315.331 11.8645 315.135 11.379 314.915C10.8813 314.682 10.3594 314.424 9.81322 314.143L1.49292 309.805C1.20162 309.658 0.928526 309.438 0.673637 309.144C0.418749 308.85 0.291304 308.47 0.291304 308.004V303.116L16.5496 312.801Z" fill="black" fill-opacity="0.2"/>
<path d="M4.56979 295.113H11.3608V286.218H15.4936V295.113H22.4302V283.682H26.7087V300.664H0.291304V283.682H4.56979V295.113Z" fill="black" fill-opacity="0.2"/>
<path d="M16.677 265.479L8.59339 268.365C8.16858 268.536 7.67094 268.72 7.10048 268.916C6.53001 269.1 5.91099 269.277 5.24343 269.449C5.92313 269.621 6.55429 269.804 7.13689 270C7.70735 270.184 8.20499 270.362 8.62981 270.533L16.677 273.4V265.479ZM26.7087 256.216V260.499C26.7087 260.977 26.5995 261.369 26.381 261.675C26.1504 261.969 25.8591 262.19 25.5071 262.337L20.4639 264.138V274.76L25.5071 276.561C25.8105 276.684 26.0897 276.898 26.3446 277.205C26.5873 277.511 26.7087 277.897 26.7087 278.363V282.682L0.291304 272.261V266.619L26.7087 256.216Z" fill="black" fill-opacity="0.2"/>
<path d="M12.7991 245.404C12.7991 244.51 12.6898 243.738 12.4713 243.089C12.2407 242.439 11.9312 241.906 11.5428 241.49C11.1423 241.073 10.675 240.767 10.1409 240.571C9.60688 240.375 9.02428 240.277 8.39312 240.277C7.14296 240.277 6.17195 240.7 5.48011 241.545C4.78827 242.378 4.44235 243.652 4.44235 245.368V248.235H12.7991V245.404ZM26.7087 232.484V237.465C26.7087 238.396 26.3567 239.07 25.6527 239.487L17.5509 244.559C17.2353 244.767 17.0047 245 16.8591 245.257C16.7134 245.503 16.6406 245.87 16.6406 246.36V248.235H26.7087V253.748H0.291304V245.368C0.291304 243.505 0.485506 241.913 0.873909 240.589C1.25017 239.266 1.77816 238.182 2.45786 237.336C3.13756 236.491 3.95078 235.872 4.89751 235.48C5.8321 235.088 6.86379 234.892 7.99259 234.892C8.86649 234.892 9.69791 235.021 10.4869 235.278C11.2637 235.523 11.9737 235.884 12.617 236.362C13.2603 236.84 13.8308 237.428 14.3284 238.127C14.826 238.825 15.2266 239.621 15.53 240.516C15.7242 240.161 15.9609 239.83 16.2401 239.523C16.5071 239.217 16.8287 238.941 17.205 238.696L26.7087 232.484Z" fill="black" fill-opacity="0.2"/>
<path d="M5.35266 215.432C5.63183 215.604 5.83817 215.782 5.97168 215.965C6.09306 216.137 6.15374 216.364 6.15374 216.645C6.15374 216.915 6.06271 217.209 5.88065 217.527C5.68645 217.834 5.48011 218.195 5.26163 218.612C5.04316 219.028 4.84289 219.506 4.66082 220.045C4.46662 220.584 4.36952 221.215 4.36952 221.938C4.36952 223.213 4.65476 224.168 5.22522 224.805C5.78355 225.443 6.51787 225.761 7.42819 225.761C8.01079 225.761 8.49629 225.59 8.8847 225.246C9.26096 224.891 9.58867 224.432 9.86784 223.868C10.147 223.292 10.3958 222.643 10.6143 221.92C10.8328 221.197 11.0755 220.456 11.3426 219.696C11.5974 218.937 11.9009 218.195 12.2529 217.472C12.6049 216.749 13.0479 216.106 13.5819 215.543C14.116 214.967 14.7714 214.507 15.5482 214.164C16.3129 213.809 17.2475 213.631 18.352 213.631C19.5536 213.631 20.6824 213.846 21.7384 214.274C22.7822 214.691 23.6986 215.298 24.4875 216.094C25.2643 216.89 25.8773 217.877 26.3264 219.053C26.7755 220.217 27 221.54 27 223.023C27 223.868 26.915 224.713 26.7451 225.559C26.5752 226.392 26.3385 227.201 26.0351 227.985C25.7316 228.757 25.3675 229.486 24.9427 230.172C24.5179 230.858 24.0445 231.458 23.5226 231.973L20.9373 230.356C20.7431 230.221 20.5853 230.043 20.4639 229.823C20.3304 229.602 20.2637 229.369 20.2637 229.124C20.2637 228.794 20.385 228.444 20.6278 228.077C20.8705 227.709 21.1376 227.286 21.4289 226.809C21.7202 226.331 21.9872 225.779 22.2299 225.155C22.4727 224.517 22.5941 223.758 22.5941 222.876C22.5941 221.589 22.3028 220.597 21.7202 219.898C21.1376 219.188 20.2697 218.832 19.1167 218.832C18.4491 218.832 17.909 219.01 17.4963 219.365C17.0836 219.708 16.7377 220.162 16.4585 220.725C16.1794 221.289 15.9427 221.932 15.7485 222.655C15.5421 223.378 15.3176 224.119 15.0748 224.879C14.8321 225.639 14.5408 226.38 14.2009 227.103C13.8611 227.826 13.412 228.469 12.8537 229.032C12.2953 229.596 11.6035 230.055 10.7782 230.411C9.9528 230.754 8.92718 230.925 7.70128 230.925C6.71814 230.925 5.76534 230.729 4.84289 230.337C3.92043 229.945 3.10115 229.369 2.38503 228.61C1.66892 227.85 1.09238 226.919 0.65543 225.816C0.218477 224.701 1.90735e-06 223.427 1.90735e-06 221.993C1.90735e-06 220.388 0.248821 218.906 0.746462 217.546C1.23197 216.174 1.91167 215.016 2.78557 214.072L5.35266 215.432Z" fill="black" fill-opacity="0.2"/>
<path d="M13.4909 175.144C15.4208 175.144 17.2111 175.474 18.8618 176.136C20.5125 176.785 21.9386 177.71 23.1403 178.911C24.3419 180.1 25.2886 181.533 25.9804 183.212C26.6601 184.89 27 186.753 27 188.799C27 190.845 26.6601 192.707 25.9804 194.386C25.2886 196.064 24.3419 197.504 23.1403 198.705C21.9386 199.905 20.5125 200.837 18.8618 201.498C17.2111 202.148 15.4208 202.472 13.4909 202.472C11.561 202.472 9.7768 202.148 8.13823 201.498C6.48753 200.837 5.06137 199.905 3.85975 198.705C2.65813 197.504 1.71747 196.064 1.03776 194.386C0.345922 192.707 1.90735e-06 190.845 1.90735e-06 188.799C1.90735e-06 186.753 0.345922 184.89 1.03776 183.212C1.71747 181.533 2.6642 180.1 3.87795 178.911C5.07957 177.71 6.50573 176.785 8.15644 176.136C9.79501 175.474 11.5732 175.144 13.4909 175.144ZM13.4909 180.786C12.1072 180.786 10.8692 180.97 9.77681 181.337C8.67229 181.705 7.7377 182.238 6.97303 182.936C6.19623 183.622 5.60756 184.461 5.20701 185.454C4.79434 186.434 4.588 187.549 4.588 188.799C4.588 190.048 4.79434 191.17 5.20701 192.162C5.60756 193.154 6.19623 194 6.97303 194.698C7.7377 195.384 8.67229 195.911 9.77681 196.279C10.8692 196.646 12.1072 196.83 13.4909 196.83C14.8867 196.83 16.1369 196.646 17.2414 196.279C18.3338 195.911 19.2623 195.384 20.027 194.698C20.7916 194 21.3803 193.154 21.793 192.162C22.1935 191.17 22.3938 190.048 22.3938 188.799C22.3938 187.549 22.1935 186.434 21.793 185.454C21.3803 184.461 20.7916 183.622 20.027 182.936C19.2623 182.238 18.3338 181.705 17.2414 181.337C16.1369 180.97 14.8867 180.786 13.4909 180.786Z" fill="black" fill-opacity="0.2"/>
<path d="M4.56979 165.567H11.8705V155.973H16.1672V165.567H26.7087V171.117H0.291304V154.135H4.56979V165.567Z" fill="black" fill-opacity="0.2"/>
<path d="M5.35266 128.027C5.63183 128.198 5.83817 128.376 5.97168 128.56C6.09306 128.731 6.15374 128.958 6.15374 129.24C6.15374 129.509 6.06271 129.803 5.88065 130.122C5.68645 130.428 5.48011 130.79 5.26163 131.206C5.04316 131.623 4.84289 132.101 4.66082 132.64C4.46662 133.179 4.36952 133.81 4.36952 134.533C4.36952 135.807 4.65476 136.763 5.22522 137.4C5.78355 138.037 6.51787 138.356 7.42819 138.356C8.01079 138.356 8.49629 138.184 8.8847 137.841C9.26096 137.486 9.58867 137.026 9.86784 136.463C10.147 135.887 10.3958 135.237 10.6143 134.514C10.8328 133.792 11.0755 133.05 11.3426 132.291C11.5974 131.531 11.9009 130.79 12.2529 130.067C12.6049 129.344 13.0479 128.701 13.5819 128.137C14.116 127.561 14.7714 127.102 15.5482 126.759C16.3129 126.403 17.2475 126.226 18.352 126.226C19.5536 126.226 20.6824 126.44 21.7384 126.869C22.7822 127.286 23.6986 127.892 24.4875 128.688C25.2643 129.485 25.8773 130.471 26.3264 131.647C26.7755 132.811 27 134.135 27 135.617C27 136.463 26.915 137.308 26.7451 138.153C26.5752 138.987 26.3385 139.795 26.0351 140.579C25.7316 141.351 25.3675 142.08 24.9427 142.766C24.5179 143.453 24.0445 144.053 23.5226 144.567L20.9373 142.95C20.7431 142.815 20.5853 142.638 20.4639 142.417C20.3304 142.197 20.2637 141.964 20.2637 141.719C20.2637 141.388 20.385 141.039 20.6278 140.671C20.8705 140.304 21.1376 139.881 21.4289 139.403C21.7202 138.925 21.9872 138.374 22.2299 137.749C22.4727 137.112 22.5941 136.352 22.5941 135.47C22.5941 134.184 22.3028 133.191 21.7202 132.493C21.1376 131.782 20.2697 131.427 19.1167 131.427C18.4491 131.427 17.909 131.605 17.4963 131.96C17.0836 132.303 16.7377 132.756 16.4585 133.32C16.1794 133.883 15.9427 134.527 15.7485 135.25C15.5421 135.972 15.3176 136.714 15.0748 137.473C14.8321 138.233 14.5408 138.974 14.2009 139.697C13.8611 140.42 13.412 141.063 12.8537 141.627C12.2953 142.191 11.6035 142.65 10.7782 143.005C9.9528 143.348 8.92718 143.52 7.70128 143.52C6.71814 143.52 5.76534 143.324 4.84289 142.932C3.92043 142.54 3.10115 141.964 2.38503 141.204C1.66892 140.445 1.09238 139.513 0.65543 138.411C0.218477 137.296 1.90735e-06 136.021 1.90735e-06 134.588C1.90735e-06 132.983 0.248821 131.5 0.746462 130.14C1.23197 128.768 1.91167 127.61 2.78557 126.667L5.35266 128.027Z" fill="black" fill-opacity="0.2"/>
<path d="M4.56979 116.677H11.3608V107.782H15.4936V116.677H22.4302V105.246H26.7087V122.227H0.291304V105.246H4.56979V116.677Z" fill="black" fill-opacity="0.2"/>
<path d="M12.7991 92.7769C12.7991 91.8825 12.6898 91.1106 12.4713 90.4612C12.2407 89.8118 11.9312 89.2789 11.5428 88.8623C11.1423 88.4457 10.675 88.1394 10.1409 87.9434C9.60688 87.7473 9.02428 87.6493 8.39312 87.6493C7.14296 87.6493 6.17195 88.072 5.48011 88.9174C4.78827 89.7506 4.44235 91.0248 4.44235 92.7402V95.6072H12.7991V92.7769ZM26.7087 79.8568V84.8374C26.7087 85.7686 26.3567 86.4425 25.6527 86.859L17.5509 91.9315C17.2353 92.1398 17.0047 92.3726 16.8591 92.6299C16.7134 92.8749 16.6406 93.2425 16.6406 93.7326V95.6072H26.7087V101.121H0.291304V92.7402C0.291304 90.8778 0.485506 89.285 0.873909 87.9617C1.25017 86.6385 1.77816 85.5542 2.45786 84.7087C3.13756 83.8633 3.95078 83.2446 4.89751 82.8525C5.8321 82.4604 6.86379 82.2644 7.99259 82.2644C8.86649 82.2644 9.69791 82.3931 10.4869 82.6504C11.2637 82.8954 11.9737 83.2569 12.617 83.7347C13.2603 84.2125 13.8308 84.8006 14.3284 85.499C14.826 86.1974 15.2266 86.9938 15.53 87.8882C15.7242 87.5329 15.9609 87.2021 16.2401 86.8958C16.5071 86.5895 16.8287 86.3138 17.205 86.0688L26.7087 79.8568Z" fill="black" fill-opacity="0.2"/>
<path d="M0.291304 54.8069L26.7087 65.54V70.5389L0.291304 81.272V76.8244C0.291304 76.3465 0.40661 75.9606 0.637226 75.6665C0.855701 75.3602 1.14093 75.1336 1.49292 74.9865L16.7134 69.2157C17.2839 68.9951 17.909 68.7807 18.5887 68.5724C19.2562 68.3519 19.9602 68.1497 20.7006 67.9659C19.9602 67.8067 19.2562 67.6351 18.5887 67.4513C17.909 67.2553 17.2839 67.047 16.7134 66.8265L1.49292 61.0924C1.18948 60.9699 0.916389 60.7555 0.673637 60.4491C0.418749 60.1306 0.291304 59.7385 0.291304 59.2729V54.8069Z" fill="black" fill-opacity="0.2"/>
<path d="M26.7087 46.7885V52.3388H0.291304V46.7885H26.7087Z" fill="black" fill-opacity="0.2"/>
<path d="M20.209 23.0532C20.209 22.7469 20.3183 22.4896 20.5368 22.2813L22.849 20.0943C24.2084 21.1725 25.2401 22.5141 25.944 24.1192C26.648 25.712 27 27.6111 27 29.8165C27 31.8136 26.6662 33.6086 25.9987 35.2014C25.3189 36.7942 24.3783 38.1481 23.1767 39.2631C21.9751 40.378 20.5489 41.2357 18.8982 41.836C17.2475 42.4364 15.445 42.7366 13.4909 42.7366C12.18 42.7366 10.9359 42.5957 9.7586 42.3139C8.56912 42.0198 7.47674 41.5971 6.48146 41.0458C5.48618 40.4944 4.588 39.8328 3.78692 39.0609C2.98584 38.2767 2.30614 37.3946 1.74781 36.4144C1.17735 35.4342 0.746462 34.3683 0.455162 33.2165C0.151722 32.0526 1.90735e-06 30.8151 1.90735e-06 29.5041C1.90735e-06 28.5239 0.0849648 27.5988 0.25489 26.7289C0.424818 25.8468 0.661501 25.0259 0.964941 24.2662C1.26838 23.5066 1.63857 22.8082 2.07553 22.1711C2.50034 21.5217 2.96764 20.9397 3.47742 20.4251L5.98989 22.2813C6.14768 22.3916 6.28726 22.5325 6.40863 22.704C6.53001 22.8756 6.5907 23.1084 6.5907 23.4024C6.5907 23.6965 6.48753 23.9967 6.28119 24.303C6.07485 24.597 5.84424 24.9646 5.58935 25.4057C5.33446 25.8345 5.10385 26.3797 4.89751 27.0414C4.69117 27.6907 4.588 28.5178 4.588 29.5225C4.588 30.6374 4.78827 31.6605 5.18881 32.5917C5.58935 33.5228 6.17195 34.3254 6.93661 34.9992C7.68914 35.6609 8.61767 36.1755 9.72219 36.543C10.8267 36.9106 12.0829 37.0944 13.4909 37.0944C14.911 37.0944 16.1794 36.8984 17.296 36.5063C18.4005 36.102 19.3351 35.5567 20.0998 34.8706C20.8645 34.1722 21.4471 33.3636 21.8476 32.4446C22.236 31.5135 22.4302 30.521 22.4302 29.4673C22.4302 28.8425 22.3999 28.2788 22.3392 27.7765C22.2785 27.2619 22.1753 26.7902 22.0297 26.3614C21.884 25.9203 21.6959 25.5098 21.4653 25.13C21.2347 24.7379 20.9434 24.3458 20.5914 23.9538C20.4821 23.819 20.3911 23.6781 20.3183 23.5311C20.2454 23.384 20.209 23.2248 20.209 23.0532Z" fill="black" fill-opacity="0.2"/>
<path d="M4.56979 11.4314H11.3608V2.53623H15.4936V11.4314H22.4302V0H26.7087V16.9817H0.291304V0H4.56979V11.4314Z" fill="black" fill-opacity="0.2"/>
</svg>
